<?xml version="1.0" encoding="UTF-8"?>
<svg version="1.1" xmlns="http://www.w3.org/2000/svg" width="1181" height="675">
<path d="M0 0 C0 0.66 0 1.32 0 2 C0.598125 2.2475 1.19625 2.495 1.8125 2.75 C4.28647521 4.16370012 5.43370255 5.65055383 7 8 C6.67 8.66 6.34 9.32 6 10 C6.66 10 7.32 10 8 10 C10.29954364 13.34479075 11.97651585 16.9825537 13.7578125 20.62109375 C15.80312875 24.53806733 18.12062367 28.29465119 20.4140625 32.0703125 C21.99691457 34.99430031 23.04723603 37.82097568 24 41 C24.66 41 25.32 41 26 41 C27.4606285 43.64738916 28 44.89448334 28 48 C29.485 48.495 29.485 48.495 31 49 C32.01342773 51.25146484 32.01342773 51.25146484 33 54 C33.89844956 55.6752567 34.82863297 57.33377224 35.78515625 58.9765625 C36.31560547 59.894375 36.84605469 60.8121875 37.39257812 61.7578125 C38.21918945 63.17707031 38.21918945 63.17707031 39.0625 64.625 C40.16003113 66.51158081 41.25519401 68.39954193 42.34765625 70.2890625 C42.83242432 71.12131348 43.31719238 71.95356445 43.81665039 72.81103516 C45 75 45 75 46 78 C46.66 78.33 47.32 78.66 48 79 C48.71678294 80.30707477 49.37210967 81.64797339 50 83 C51.03424202 84.96226459 52.0768711 86.92011773 53.125 88.875 C54.04345703 90.59203125 54.04345703 90.59203125 54.98046875 92.34375 C56.3393547 94.84210791 57.76094634 97.28864575 59.23828125 99.71875 C59.78814697 100.63551514 59.78814697 100.63551514 60.34912109 101.57080078 C61.38684389 103.29102767 62.44106474 105.00127 63.49609375 106.7109375 C65.6404081 111.40058083 65.61904719 114.96875142 64.125 119.87109375 C63.568125 121.14146484 63.568125 121.14146484 63 122.4375 C62.443125 123.73494141 62.443125 123.73494141 61.875 125.05859375 C61.58625 125.69925781 61.2975 126.33992187 61 127 C60.34 127 59.68 127 59 127 C58.67 127.99 58.34 128.98 58 130 C54.15041318 133.84958682 50.30636806 135.36080079 45 136 C35.40857403 135.32691748 26.15635156 131.50913892 17.31640625 127.90625 C14.88107742 126.9534738 12.56323461 126.50014334 10 126 C9.12214844 125.68546875 8.24429688 125.3709375 7.33984375 125.046875 C-6.67035882 120.65537291 -21.50621644 121.25264774 -35 127 C-36.33165002 127.33999575 -37.6652615 127.67233856 -39 128 C-41.00524379 128.6293632 -43.00491842 129.27662923 -45 129.9375 C-46.03125 130.27652344 -47.0625 130.61554688 -48.125 130.96484375 C-50.54189588 131.83505762 -52.72169411 132.83060406 -55 134 C-57.25 134.5625 -57.25 134.5625 -60 135 C-61.8253125 135.4021875 -61.8253125 135.4021875 -63.6875 135.8125 C-68.99707122 136.45730561 -73.38188576 134.47224137 -78 132 C-80.625 129.875 -80.625 129.875 -82 128 C-82 127.34 -82 126.68 -82 126 C-82.66 126 -83.32 126 -84 126 C-86.92003806 119.0649096 -88.1909894 113.85379985 -85.5 106.5625 C-84.7575 104.7990625 -84.7575 104.7990625 -84 103 C-83.34 103 -82.68 103 -82 103 C-82.33 102.01 -82.66 101.02 -83 100 C-82.56171875 99.60683594 -82.1234375 99.21367187 -81.671875 98.80859375 C-79.7277916 96.70553157 -78.57679965 94.60056338 -77.25 92.0625 C-73.55842422 85.13043875 -69.62911028 78.34374741 -65.5625 71.625 C-63.54737868 68.23959618 -61.61611368 64.81022823 -59.6875 61.375 C-59.29232178 60.67366943 -58.89714355 59.97233887 -58.48999023 59.24975586 C-55.64475628 54.18802738 -52.88296939 49.08681613 -50.19140625 43.94140625 C-49 42 -49 42 -47 41 C-46.7525 40.175 -46.505 39.35 -46.25 38.5 C-44.87021933 34.63661411 -42.9580677 31.83679211 -40.640625 28.484375 C-38.93933584 25.90813713 -37.45976107 23.28226537 -36 20.5625 C-26.21125333 2.33958518 -26.21125333 2.33958518 -19.75 -1.25 C-12.18948317 -3.31195914 -7.18979763 -3.26808983 0 0 Z " fill="#01205F" transform="translate(312,260)"/>
<path d="M0 0 C1.66611905 -0.042721 3.33382885 -0.04063832 5 0 C6.69999452 1.69999452 6.12482505 3.82913575 6.13374341 6.09731102 C6.13151268 6.83299623 6.12928196 7.56868145 6.12698364 8.32666016 C6.12932363 9.49069587 6.12932363 9.49069587 6.13171089 10.67824745 C6.13572396 13.29853802 6.13253007 15.91877142 6.12939453 18.5390625 C6.13074844 20.40948521 6.13252831 22.27990766 6.13470459 24.15032959 C6.13928021 29.24522296 6.13748884 34.34009618 6.1343255 39.43498993 C6.13180256 44.75434933 6.13413926 50.07370694 6.13571167 55.39306641 C6.13753356 64.32780265 6.13512655 73.26253064 6.13037109 82.19726562 C6.12492844 92.54293542 6.12669108 102.88858552 6.1321975 113.23425484 C6.13672808 122.09961173 6.13737945 130.96496268 6.13475883 139.83032036 C6.13319575 145.13275348 6.13300313 150.43517733 6.13629532 155.73760986 C6.13917324 160.72138649 6.13719981 165.70513759 6.13140106 170.68891144 C6.13007304 172.52358203 6.13046829 174.35825474 6.13266373 176.1929245 C6.13537358 178.68642579 6.13199616 181.17984393 6.12698364 183.67333984 C6.13032973 184.77686767 6.13032973 184.77686767 6.13374341 185.90268898 C6.11414985 190.88585015 6.11414985 190.88585015 5 192 C3.33382885 192.04063832 1.66611905 192.042721 0 192 C-1.49939829 189.00120342 -1.13711124 185.92414289 -1.12698364 182.63574219 C-1.12854363 181.86773663 -1.13010362 181.09973106 -1.13171089 180.30845261 C-1.13571654 177.72124086 -1.13253291 175.13408724 -1.12939453 172.546875 C-1.13074876 170.69763148 -1.13252882 168.84838824 -1.13470459 166.99914551 C-1.1392763 161.96622562 -1.13749043 156.93332615 -1.1343255 151.90040588 C-1.13180056 146.64291324 -1.13413982 141.38542239 -1.13571167 136.12792969 C-1.13753297 127.29752284 -1.13512809 118.46712434 -1.13037109 109.63671875 C-1.12492855 99.41544806 -1.12669124 89.1941973 -1.1321975 78.97292709 C-1.13672975 70.21029362 -1.13737863 61.44766616 -1.13475883 52.68503189 C-1.13319668 47.44573896 -1.13300061 42.20645542 -1.13629532 36.96716309 C-1.13917565 32.04246585 -1.13719532 27.11779442 -1.13140106 22.19309998 C-1.13007434 20.38142439 -1.1304661 18.56974664 -1.13266373 16.7580719 C-1.13537866 14.29343748 -1.13198985 11.82888683 -1.12698364 9.36425781 C-1.12921436 8.63994946 -1.13144509 7.9156411 -1.13374341 7.169384 C-1.11415008 2.22830017 -1.11415008 2.22830017 0 0 Z " fill="#081340" transform="translate(419,232)"/>
<path d="M0 0 C2.97 0 5.94 0 9 0 C12.54471697 6.43569515 15.03761894 12.81854976 17.0859375 19.87109375 C18.10426929 23.35692179 19.27063657 26.77360309 20.484375 30.1953125 C21 32 21 32 21 35 C17.94928825 35.287803 15.03939738 35.4472872 12 35 C9.89638304 32.5776532 9 31.21754366 9 28 C5.7 27.67 2.4 27.34 -1 27 C-0.938125 28.423125 -0.938125 28.423125 -0.875 29.875 C-1 33 -1 33 -3 35 C-5.1640625 35.1953125 -5.1640625 35.1953125 -7.625 35.125 C-8.44226563 35.10695313 -9.25953125 35.08890625 -10.1015625 35.0703125 C-10.72804688 35.04710937 -11.35453125 35.02390625 -12 35 C-10.98145579 29.51719818 -9.8461868 24.27481942 -8 19 C-8 18.34 -8 17.68 -8 17 C-7.34 17 -6.68 17 -6 17 C-5.90203125 16.443125 -5.8040625 15.88625 -5.703125 15.3125 C-4.58748557 9.6188919 -2.77761221 5.09228905 0 0 Z M4 11 C3.34 13.64 2.68 16.28 2 19 C3.32 19 4.64 19 6 19 C6.16681109 16.08347826 6.16681109 16.08347826 6 13 C5.34 12.34 4.68 11.68 4 11 Z " fill="#05215D" transform="translate(480,312)"/>
<path d="M0 0 C2.64 0 5.28 0 8 0 C8 7.92 8 15.84 8 24 C8.66 24 9.32 24 10 24 C10 24.66 10 25.32 10 26 C12.31 26.33 14.62 26.66 17 27 C18.01587978 23.95236066 18.19804406 21.65281033 18.31640625 18.45703125 C18.35830078 17.38388672 18.40019531 16.31074219 18.44335938 15.20507812 C18.48267578 14.08552734 18.52199219 12.96597656 18.5625 11.8125 C18.60568359 10.68134766 18.64886719 9.55019531 18.69335938 8.38476562 C18.79949099 5.58996646 18.90154385 2.79507838 19 0 C21.64 0 24.28 0 27 0 C27.14886815 4.03814395 27.25745089 8.07521605 27.32958984 12.11547852 C27.3596733 13.4881575 27.40055334 14.86064563 27.45263672 16.23266602 C27.87473084 27.64162169 27.87473084 27.64162169 25.70800781 31.00634766 C21.84909187 34.26590006 18.58105433 35.1543907 13.6875 35.1875 C12.27017578 35.20876953 12.27017578 35.20876953 10.82421875 35.23046875 C5.86985302 34.82617058 3.73791054 33.73791054 0.1796875 30.1796875 C-3.29094923 24.93704203 -2.32785914 19.1356758 -1.875 13.125 C-1.813125 11.97257812 -1.75125 10.82015625 -1.6875 9.6328125 C-1.1896734 1.1896734 -1.1896734 1.1896734 0 0 Z " fill="#041E5C" transform="translate(569,312)"/>
<path d="M0 0 C0.99 0.33 1.98 0.66 3 1 C3.33 63.7 3.66 126.4 4 191 C2.68 191 1.36 191 0 191 C-1.50022733 187.99954534 -1.13710744 184.91927342 -1.12698364 181.62901306 C-1.12854363 180.86030193 -1.13010362 180.09159081 -1.13171089 179.2995854 C-1.13571651 176.71003969 -1.13253294 174.12055206 -1.12939453 171.53100586 C-1.13074875 169.68013983 -1.13252881 167.82927406 -1.13470459 165.97840881 C-1.1392761 160.94142397 -1.1374906 155.90445953 -1.1343255 150.86747432 C-1.13180083 145.60684448 -1.13413971 140.34621645 -1.13571167 135.08558655 C-1.13753289 126.25098353 -1.13512813 117.41638886 -1.13037109 108.58178711 C-1.12492688 98.352544 -1.12669248 88.12332082 -1.1321975 77.8940782 C-1.13672797 69.12636485 -1.13737955 60.35865753 -1.13475883 51.5909434 C-1.13319591 46.34776995 -1.13300273 41.10460588 -1.13629532 35.86143303 C-1.13917314 30.93427658 -1.13719999 26.00714594 -1.13140106 21.07999229 C-1.13007305 19.26628411 -1.13046826 17.45257377 -1.13266373 15.63886642 C-1.13537361 13.1738822 -1.13199614 10.70898208 -1.12698364 8.2440033 C-1.12921436 7.5167821 -1.13144509 6.7895609 -1.13374341 6.04030269 C-1.11414997 1.11414997 -1.11414997 1.11414997 0 0 Z " fill="#14264D" transform="translate(419,233)"/>
<path d="M0 0 C3.1875 1.5 3.1875 1.5 5 3 C4.34 4.98 3.68 6.96 3 9 C-0.63 9 -4.26 9 -8 9 C-7.32539994 12.14338838 -7.32539994 12.14338838 -4.78515625 13.24609375 C-2.97319373 14.03898983 -1.16069476 14.83066113 0.65234375 15.62109375 C3.31321245 17.18396671 4.01356546 18.11741905 5 21 C5.45208548 25.97294029 5.15736025 29.05329969 2 33 C-1.32163155 35.14709067 -4.09260355 35.26953698 -8 35.25 C-9.546875 35.25773437 -9.546875 35.25773437 -11.125 35.265625 C-13.94597278 35.00499165 -15.60145718 34.45296344 -18 33 C-18 30.36 -18 27.72 -18 25 C-16.783125 25.165 -15.56625 25.33 -14.3125 25.5 C-11.18392164 25.89454541 -8.15831196 26.09869725 -5 26 C-4.67 25.34 -4.34 24.68 -4 24 C-4.70125 23.7525 -5.4025 23.505 -6.125 23.25 C-9.39514548 21.82819762 -12.141122 20.12753712 -15 18 C-15 17.34 -15 16.68 -15 16 C-15.66 16 -16.32 16 -17 16 C-17.99440536 11.02797322 -18.30156698 7.60313395 -16 3 C-11.67425206 -1.18620769 -5.64235634 -0.65982578 0 0 Z " fill="#06235D" transform="translate(623,312)"/>
<path d="M0 0 C1.73830078 0.00386719 1.73830078 0.00386719 3.51171875 0.0078125 C4.66285156 0.00523437 5.81398438 0.00265625 7 0 C9.61173612 0.10842372 11.72229859 0.36221512 14.19921875 1.1328125 C14.19921875 1.7928125 14.19921875 2.4528125 14.19921875 3.1328125 C15.51921875 3.4628125 16.83921875 3.7928125 18.19921875 4.1328125 C19.64589526 12.13310792 19.64589526 12.13310792 17.88671875 16.0703125 C16.19921875 18.1328125 16.19921875 18.1328125 14.19921875 20.1328125 C14.98927537 21.57119802 15.7813292 23.00848665 16.57421875 24.4453125 C17.01507812 25.24582031 17.4559375 26.04632813 17.91015625 26.87109375 C18.9343521 28.66809193 20.05189013 30.41181958 21.19921875 32.1328125 C21.19921875 33.1228125 21.19921875 34.1128125 21.19921875 35.1328125 C18.44921875 35.5078125 18.44921875 35.5078125 15.19921875 35.1328125 C12.56013083 32.00757681 11.19921875 30.26815397 11.19921875 26.1328125 C10.53921875 26.1328125 9.87921875 26.1328125 9.19921875 26.1328125 C8.74546875 25.4728125 8.29171875 24.8128125 7.82421875 24.1328125 C7.28796875 23.4728125 6.75171875 22.8128125 6.19921875 22.1328125 C4.87921875 22.1328125 3.55921875 22.1328125 2.19921875 22.1328125 C2.19921875 26.4228125 2.19921875 30.7128125 2.19921875 35.1328125 C0.54921875 35.1328125 -1.10078125 35.1328125 -2.80078125 35.1328125 C-4.50571006 33.42788369 -3.92882545 31.28746989 -3.93972778 29.01379395 C-3.93770355 28.30025757 -3.93567932 27.58672119 -3.93359375 26.8515625 C-3.93455048 26.12287964 -3.9355072 25.39419678 -3.93649292 24.64343262 C-3.9371746 23.1000154 -3.93532113 21.55659533 -3.93115234 20.01318359 C-3.92580387 17.6428385 -3.93109767 15.27268291 -3.9375 12.90234375 C-3.93683922 11.40624958 -3.93555805 9.91015553 -3.93359375 8.4140625 C-3.93561798 7.70052612 -3.93764221 6.98698975 -3.93972778 6.25183105 C-3.9106393 0.18544175 -3.9106393 0.18544175 0 0 Z M2.19921875 7.1328125 C2.12741911 8.65209288 2.11529868 10.17448732 2.13671875 11.6953125 C2.14574219 12.52160156 2.15476562 13.34789062 2.1640625 14.19921875 C2.17566406 14.83730469 2.18726563 15.47539062 2.19921875 16.1328125 C6.21957511 16.40100433 6.21957511 16.40100433 10.19921875 16.1328125 C12.30923034 14.46024634 12.30923034 14.46024634 13.19921875 12.1328125 C13.19921875 11.1428125 13.19921875 10.1528125 13.19921875 9.1328125 C12.53921875 9.1328125 11.87921875 9.1328125 11.19921875 9.1328125 C11.19921875 8.1428125 11.19921875 7.1528125 11.19921875 6.1328125 C6.39951133 5.60447534 6.39951133 5.60447534 2.19921875 7.1328125 Z " fill="#4C4C4D" transform="translate(813.80078125,311.8671875)"/>
<path d="M0 0 C16.32 0 16.32 0 20 2 C21.82111288 4.8994034 22.67083323 7.59675037 23 11 C21.8125 14.8125 21.8125 14.8125 20 18 C19.32672692 19.33000962 18.65853144 20.66262998 18 22 C18.433125 22.60328125 18.86625 23.2065625 19.3125 23.828125 C19.869375 24.62734375 20.42625 25.4265625 21 26.25 C21.556875 27.03890625 22.11375 27.8278125 22.6875 28.640625 C24 31 24 31 24 35 C21.2265625 35.37109375 21.2265625 35.37109375 18 35 C16.0234375 32.41015625 16.0234375 32.41015625 14.375 29.0625 C12.47572951 24.670799 12.47572951 24.670799 8.7890625 22.12109375 C8.19867187 22.08113281 7.60828125 22.04117187 7 22 C6.93941406 22.85464844 6.87882813 23.70929688 6.81640625 24.58984375 C6.73261719 25.69457031 6.64882813 26.79929687 6.5625 27.9375 C6.48128906 29.03964844 6.40007813 30.14179688 6.31640625 31.27734375 C6 34 6 34 5 35 C3.35 35 1.7 35 0 35 C0 23.45 0 11.9 0 0 Z M6 7 C5.69476038 11.65088715 5.69476038 11.65088715 7 16 C9.31 16 11.62 16 14 16 C15.06775224 14.03533587 16.06553465 12.03144641 17 10 C16.67 9.34 16.34 8.68 16 8 C15.34 8 14.68 8 14 8 C14 7.34 14 6.68 14 6 C9.67679914 5.49633499 9.67679914 5.49633499 6 7 Z " fill="#49494A" transform="translate(719,312)"/>
<path d="M0 0 C6.27 0 12.54 0 19 0 C19.33 1.65 19.66 3.3 20 5 C18.18884044 6.81115956 15.38721773 6.38199448 12.9375 6.5625 C11.83277344 6.64628906 10.72804688 6.73007812 9.58984375 6.81640625 C8.30787109 6.90728516 8.30787109 6.90728516 7 7 C7 8.98 7 10.96 7 13 C10.96 13.33 14.92 13.66 19 14 C19.33 15.32 19.66 16.64 20 18 C18.18884044 19.81115956 15.38721773 19.38199448 12.9375 19.5625 C11.28041016 19.68818359 11.28041016 19.68818359 9.58984375 19.81640625 C8.73519531 19.87699219 7.88054688 19.93757813 7 20 C6.67 22.97 6.34 25.94 6 29 C10.29 29 14.58 29 19 29 C19.33 30.65 19.66 32.3 20 34 C19 35 19 35 17.14233398 35.11352539 C16.35157471 35.10828857 15.56081543 35.10305176 14.74609375 35.09765625 C13.89208984 35.09443359 13.03808594 35.09121094 12.15820312 35.08789062 C11.26037109 35.07951172 10.36253906 35.07113281 9.4375 35.0625 C8.53580078 35.05798828 7.63410156 35.05347656 6.70507812 35.04882812 C4.46998686 35.03700225 2.23502563 35.0205222 0 35 C-1.47712785 32.0457443 -1.12989998 29.38739796 -1.1328125 26.09375 C-1.13376923 25.41324585 -1.13472595 24.7327417 -1.13571167 24.03161621 C-1.13639231 22.59252836 -1.13454607 21.15343743 -1.13037109 19.71435547 C-1.12502115 17.50871907 -1.13031991 15.3032863 -1.13671875 13.09765625 C-1.13605795 11.70052038 -1.13477674 10.30338464 -1.1328125 8.90625 C-1.13168457 7.63072266 -1.13055664 6.35519531 -1.12939453 5.04101562 C-1 2 -1 2 0 0 Z " fill="#454546" transform="translate(781,312)"/>
<path d="M0 0 C1.084021 0.00523682 2.16804199 0.01047363 3.28491211 0.01586914 C5.03964844 0.02070313 5.03964844 0.02070313 6.82983398 0.02563477 C8.67738281 0.03820312 8.67738281 0.03820312 10.56225586 0.05102539 C12.41560547 0.05779297 12.41560547 0.05779297 14.30639648 0.06469727 C17.37089703 0.07652931 20.43530307 0.09301366 23.49975586 0.11352539 C23.49975586 2.75352539 23.49975586 5.39352539 23.49975586 8.11352539 C20.85975586 8.77352539 18.21975586 9.43352539 15.49975586 10.11352539 C15.16975586 18.36352539 14.83975586 26.61352539 14.49975586 35.11352539 C11.85975586 35.11352539 9.21975586 35.11352539 6.49975586 35.11352539 C4.78532367 33.3990932 5.26922619 31.10907298 5.18334961 28.76586914 C5.14145508 27.6862793 5.09956055 26.60668945 5.05639648 25.49438477 C5.01708008 24.35807617 4.97776367 23.22176758 4.93725586 22.05102539 C4.89407227 20.91084961 4.85088867 19.77067383 4.80639648 18.59594727 C4.69992747 15.76860344 4.59791378 12.94116801 4.49975586 10.11352539 C3.36538086 9.80415039 2.23100586 9.49477539 1.06225586 9.17602539 C-2.50024414 8.11352539 -2.50024414 8.11352539 -3.50024414 7.11352539 C-3.62524414 4.11352539 -3.62524414 4.11352539 -3.50024414 1.11352539 C-2.50024414 0.11352539 -2.50024414 0.11352539 0 0 Z " fill="#052A65" transform="translate(537.500244140625,311.886474609375)"/>
<path d="M0 0 C2.375 -0.125 2.375 -0.125 5 0 C7.05934789 2.05934789 7.53130635 3.08749489 8.4375 5.7734375 C8.69273437 6.5159375 8.94796875 7.2584375 9.2109375 8.0234375 C9.60152344 9.18746094 9.60152344 9.18746094 10 10.375 C10.51838058 11.90447933 11.03914173 13.43315428 11.5625 14.9609375 C11.90474609 15.97873291 11.90474609 15.97873291 12.25390625 17.01708984 C13.03601079 19.09570668 13.99840965 21.01935509 15 23 C16.31071272 26.62373517 17.45397195 30.17780367 18 34 C17 35 17 35 14.4375 35.0625 C13.633125 35.041875 12.82875 35.02125 12 35 C10.68 32.03 9.36 29.06 8 26 C4.04 26 0.08 26 -4 26 C-4.99 28.97 -5.98 31.94 -7 35 C-8.65 35 -10.3 35 -12 35 C-13 32 -13 32 -11.5625 29.0625 C-11.046875 28.051875 -10.53125 27.04125 -10 26 C-10 24.68 -10 23.36 -10 22 C-9.34 22 -8.68 22 -8 22 C-7.81824219 21.3709375 -7.63648438 20.741875 -7.44921875 20.09375 C-3.38157895 6.24291498 -3.38157895 6.24291498 0 0 Z M1 12 C0.39938767 13.90178785 0.39938767 13.90178785 0 16 C-0.33 16.99 -0.66 17.98 -1 19 C1.31 19 3.62 19 6 19 C5.34 16.36 4.68 13.72 4 11 C2.7763932 10.9254644 2.7763932 10.9254644 1 12 Z " fill="#49494A" transform="translate(694,312)"/>
<path d="M0 0 C6.15234375 -0.09765625 6.15234375 -0.09765625 8 0 C9 1 9 1 9.11352539 3.50024414 C9.10828857 4.58426514 9.10305176 5.66828613 9.09765625 6.78515625 C9.09443359 7.95498047 9.09121094 9.12480469 9.08789062 10.33007812 C9.07951172 11.56177734 9.07113281 12.79347656 9.0625 14.0625 C9.05798828 15.29806641 9.05347656 16.53363281 9.04882812 17.80664062 C9.03699608 20.87114117 9.02051173 23.93554721 9 27 C10.39025391 26.98259766 10.39025391 26.98259766 11.80859375 26.96484375 C13.00613281 26.95582031 14.20367188 26.94679688 15.4375 26.9375 C16.63246094 26.92589844 17.82742188 26.91429687 19.05859375 26.90234375 C22 27 22 27 23 28 C23.1875 30.4375 23.1875 30.4375 23 33 C21 35 21 35 18.84521484 35.22705078 C17.97590332 35.21657715 17.1065918 35.20610352 16.2109375 35.1953125 C15.26992188 35.18886719 14.32890625 35.18242187 13.359375 35.17578125 C11.88210938 35.15064453 11.88210938 35.15064453 10.375 35.125 C9.38242187 35.11597656 8.38984375 35.10695313 7.3671875 35.09765625 C4.91121866 35.07404116 2.45572832 35.04110799 0 35 C-1.47712785 32.0457443 -1.12989998 29.38739796 -1.1328125 26.09375 C-1.13376923 25.41324585 -1.13472595 24.7327417 -1.13571167 24.03161621 C-1.13639231 22.59252836 -1.13454607 21.15343743 -1.13037109 19.71435547 C-1.12502115 17.50871907 -1.13031991 15.3032863 -1.13671875 13.09765625 C-1.13605795 11.70052038 -1.13477674 10.30338464 -1.1328125 8.90625 C-1.13168457 7.63072266 -1.13055664 6.35519531 -1.12939453 5.04101562 C-1 2 -1 2 0 0 Z " fill="#021E60" transform="translate(508,312)"/>
<path d="M0 0 C1.18613892 0.00785522 1.18613892 0.00785522 2.39624023 0.01586914 C3.67724609 0.02070313 3.67724609 0.02070313 4.98413086 0.02563477 C5.88196289 0.03401367 6.77979492 0.04239258 7.70483398 0.05102539 C8.6065332 0.05553711 9.50823242 0.06004883 10.43725586 0.06469727 C12.67234712 0.07652315 14.90730835 0.09300319 17.14233398 0.11352539 C17.14233398 2.09352539 17.14233398 4.07352539 17.14233398 6.11352539 C10.70733398 6.60852539 10.70733398 6.60852539 4.14233398 7.11352539 C4.14233398 9.09352539 4.14233398 11.07352539 4.14233398 13.11352539 C8.10233398 13.44352539 12.06233398 13.77352539 16.14233398 14.11352539 C16.14233398 15.76352539 16.14233398 17.41352539 16.14233398 19.11352539 C11.85233398 19.11352539 7.56233398 19.11352539 3.14233398 19.11352539 C3.14233398 22.41352539 3.14233398 25.71352539 3.14233398 29.11352539 C7.76233398 29.11352539 12.38233398 29.11352539 17.14233398 29.11352539 C17.14233398 31.09352539 17.14233398 33.07352539 17.14233398 35.11352539 C13.99651975 35.14241053 10.8507393 35.16028462 7.70483398 35.17602539 C6.80700195 35.1844043 5.90916992 35.1927832 4.98413086 35.20141602 C3.703125 35.20625 3.703125 35.20625 2.39624023 35.21118164 C1.60548096 35.21641846 0.81472168 35.22165527 0 35.22705078 C-1.85766602 35.11352539 -1.85766602 35.11352539 -2.85766602 34.11352539 C-2.95849365 31.67692094 -2.99739205 29.26927838 -2.99047852 26.83227539 C-2.99143524 26.10359253 -2.99239197 25.37490967 -2.99337769 24.62414551 C-2.99405937 23.08072829 -2.99220589 21.53730822 -2.98803711 19.99389648 C-2.98268864 17.62355139 -2.98798244 15.2533958 -2.99438477 12.88305664 C-2.99372398 11.38696247 -2.99244281 9.89086842 -2.99047852 8.39477539 C-2.99250275 7.68123901 -2.99452698 6.96770264 -2.99661255 6.23254395 C-2.96759695 0.18135531 -2.96759695 0.18135531 0 0 Z " fill="#565657" transform="translate(753.857666015625,311.886474609375)"/>
<path d="M0 0 C0.88300781 0.19464844 1.76601563 0.38929688 2.67578125 0.58984375 C3.33964844 0.74582031 4.00351562 0.90179688 4.6875 1.0625 C5.0175 2.0525 5.3475 3.0425 5.6875 4.0625 C4.6975 5.5475 4.6975 5.5475 3.6875 7.0625 C1.06052936 7.28387393 -1.32143964 7.34412025 -3.9375 7.25 C-4.64390625 7.23646484 -5.3503125 7.22292969 -6.078125 7.20898438 C-7.82324128 7.1736104 -9.56796608 7.11980221 -11.3125 7.0625 C-11.3125 7.7225 -11.3125 8.3825 -11.3125 9.0625 C-11.9725 9.0625 -12.6325 9.0625 -13.3125 9.0625 C-14.70849137 14.82096439 -14.70849137 20.30403561 -13.3125 26.0625 C-12.6525 26.0625 -11.9925 26.0625 -11.3125 26.0625 C-11.3125 26.7225 -11.3125 27.3825 -11.3125 28.0625 C-5.96347076 28.65448743 -0.70365154 29.20437241 4.6875 29.0625 C4.3125 31.5 4.3125 31.5 3.6875 34.0625 C-1.34404867 36.57827433 -8.6365389 35.60120178 -13.8125 33.9375 C-17.71513667 31.01052249 -19.78160212 27.65519363 -21.3125 23.0625 C-22.04599364 16.29271445 -21.51456645 10.5915348 -17.3125 5.0625 C-12.04336587 0.04308787 -7.19466906 -1.63079165 0 0 Z " fill="#484848" transform="translate(672.3125,311.9375)"/>
<path d="M0 0 C0.99 0.33 1.98 0.66 3 1 C2.98839844 1.66386719 2.97679687 2.32773437 2.96484375 3.01171875 C2.88106591 9.56306787 2.88106591 9.56306787 4 16 C4.66 16 5.32 16 6 16 C6 16.66 6 17.32 6 18 C11.34902924 18.59198743 16.60884846 19.14187241 22 19 C21.625 21.4375 21.625 21.4375 21 24 C16.83833745 26.08083127 11.54358859 25.33173528 7 25 C3.3125 23.75 3.3125 23.75 1 22 C0.25 20.1875 0.25 20.1875 0 18 C-0.5259375 16.6696875 -0.5259375 16.6696875 -1.0625 15.3125 C-2.22843227 11.19287263 -2.55146224 7.25761285 -2 3 C-1.34 2.01 -0.68 1.02 0 0 Z " fill="#4F4E4F" transform="translate(655,322)"/>
<path d="M0 0 C1.18613892 0.00785522 1.18613892 0.00785522 2.39624023 0.01586914 C3.67724609 0.02070313 3.67724609 0.02070313 4.98413086 0.02563477 C5.88196289 0.03401367 6.77979492 0.04239258 7.70483398 0.05102539 C8.6065332 0.05553711 9.50823242 0.06004883 10.43725586 0.06469727 C12.67234712 0.07652315 14.90730835 0.09300319 17.14233398 0.11352539 C17.14233398 2.09352539 17.14233398 4.07352539 17.14233398 6.11352539 C10.70733398 6.60852539 10.70733398 6.60852539 4.14233398 7.11352539 C3.81233398 6.12352539 3.48233398 5.13352539 3.14233398 4.11352539 C7.10233398 4.11352539 11.06233398 4.11352539 15.14233398 4.11352539 C15.14233398 3.45352539 15.14233398 2.79352539 15.14233398 2.11352539 C9.86233398 2.11352539 4.58233398 2.11352539 -0.85766602 2.11352539 C-0.85766602 12.34352539 -0.85766602 22.57352539 -0.85766602 33.11352539 C4.75233398 33.11352539 10.36233398 33.11352539 16.14233398 33.11352539 C16.14233398 33.44352539 16.14233398 33.77352539 16.14233398 34.11352539 C9.87233398 34.11352539 3.60233398 34.11352539 -2.85766602 34.11352539 C-2.8805769 29.43206828 -2.90050334 24.75080437 -2.91259766 20.06933594 C-2.91763759 18.47557925 -2.92446951 16.8818272 -2.93310547 15.28808594 C-2.945186 13.00202286 -2.95089757 10.71602072 -2.95532227 8.42993164 C-2.96048355 7.71325821 -2.96564484 6.99658478 -2.97096252 6.25819397 C-2.97115864 4.54288867 -2.91958609 2.82771273 -2.85766602 1.11352539 C-1.85766602 0.11352539 -1.85766602 0.11352539 0 0 Z " fill="#3D3F40" transform="translate(753.857666015625,311.886474609375)"/>
<path d="M0 0 C2.97 0.495 2.97 0.495 6 1 C5.01 1.66 4.02 2.32 3 3 C2.48779459 6.10213725 2.48779459 6.10213725 2.48828125 9.7578125 C2.47033005 10.42086395 2.45237885 11.08391541 2.43388367 11.76705933 C2.37967076 13.88630803 2.34585229 16.00533025 2.3125 18.125 C2.27933633 19.56122952 2.24484755 20.9974291 2.20898438 22.43359375 C2.12143911 25.95576363 2.06147421 29.47689189 2 33 C7.61 33 13.22 33 19 33 C19 33.33 19 33.66 19 34 C9.595 34.495 9.595 34.495 0 35 C-1.47712785 32.0457443 -1.12989998 29.38739796 -1.1328125 26.09375 C-1.13376923 25.41324585 -1.13472595 24.7327417 -1.13571167 24.03161621 C-1.13639231 22.59252836 -1.13454607 21.15343743 -1.13037109 19.71435547 C-1.12502115 17.50871907 -1.13031991 15.3032863 -1.13671875 13.09765625 C-1.13605795 11.70052038 -1.13477674 10.30338464 -1.1328125 8.90625 C-1.13168457 7.63072266 -1.13055664 6.35519531 -1.12939453 5.04101562 C-1 2 -1 2 0 0 Z " fill="#025181" transform="translate(508,312)"/>
<path d="M0 0 C1.91635217 -0.05423638 3.83314925 -0.09289963 5.75 -0.125 C7.35101562 -0.15980469 7.35101562 -0.15980469 8.984375 -0.1953125 C11.92470106 -0.00487687 13.52361878 0.47329896 16 2 C15.01 2.66 14.02 3.32 13 4 C13.495 4.37125 13.99 4.7425 14.5 5.125 C16.59755514 7.74694393 16.21743835 9.73842472 16 13 C15.67 11.68 15.34 10.36 15 9 C14.34 9 13.68 9 13 9 C13 8.01 13 7.02 13 6 C8.545 6.495 8.545 6.495 4 7 C3.67 9.64 3.34 12.28 3 15 C2.67 15 2.34 15 2 15 C1.67 13.35 1.34 11.7 1 10 C0.67 10 0.34 10 0 10 C0 6.7 0 3.4 0 0 Z " fill="#434444" transform="translate(812,312)"/>
<path d="M0 0 C1.65 0 3.3 0 5 0 C8.29207182 7.44514705 8.29207182 7.44514705 7.6015625 11.12109375 C6.47004003 13.81546162 5.674137 15.6629315 3 17 C3 16.34 3 15.68 3 15 C2.34 14.67 1.68 14.34 1 14 C2.32 13.34 3.64 12.68 5 12 C3.68 11.67 2.36 11.34 1 11 C1 9.35 1 7.7 1 6 C0.34 6 -0.32 6 -1 6 C-1 5.34 -1 4.68 -1 4 C-5.455 4.495 -5.455 4.495 -10 5 C-10 4.01 -10 3.02 -10 2 C-6.7 2 -3.4 2 0 2 C0 1.34 0 0.68 0 0 Z " fill="#4D4D4D" transform="translate(734,314)"/>
<path d="M0 0 C0.66 0 1.32 0 2 0 C1.67 1.65 1.34 3.3 1 5 C1.66 5 2.32 5 3 5 C1.66666667 7.66666667 0.33333333 10.33333333 -1 13 C0.32 13.33 1.64 13.66 3 14 C2.34 14 1.68 14 1 14 C0.01 16.97 -0.98 19.94 -2 23 C-3.65 23 -5.3 23 -7 23 C-8 20 -8 20 -6.5625 17.0625 C-6.046875 16.051875 -5.53125 15.04125 -5 14 C-5 12.68 -5 11.36 -5 10 C-4.34 10 -3.68 10 -3 10 C-2.01 6.7 -1.02 3.4 0 0 Z " fill="#414142" transform="translate(689,324)"/>
<path d="M0 0 C0.99 0.33 1.98 0.66 3 1 C3.66 0.67 4.32 0.34 5 0 C4.67 3.3 4.34 6.6 4 10 C3.34 10 2.68 10 2 10 C2.33 10.99 2.66 11.98 3 13 C2.01 14.485 2.01 14.485 1 16 C3.31 16.33 5.62 16.66 8 17 C8 17.33 8 17.66 8 18 C5.03 18 2.06 18 -1 18 C-1 17.01 -1 16.02 -1 15 C-1.66 15 -2.32 15 -3 15 C-3.22552339 9.36191513 -2.52663487 5.05326974 0 0 Z " fill="#4A494A" transform="translate(693,314)"/>
<path d="M0 0 C0 0.66 0 1.32 0 2 C-0.99 2.66 -1.98 3.32 -3 4 C-2.67 5.65 -2.34 7.3 -2 9 C-2.639375 9.103125 -3.27875 9.20625 -3.9375 9.3125 C-4.618125 9.539375 -5.29875 9.76625 -6 10 C-6.33 10.99 -6.66 11.98 -7 13 C-7.598125 12.505 -8.19625 12.01 -8.8125 11.5 C-10.97029994 9.71723582 -10.97029994 9.71723582 -14 10 C-14.625 7.6875 -14.625 7.6875 -15 5 C-14.34 4.01 -13.68 3.02 -13 2 C-13 2.66 -13 3.32 -13 4 C-10.69 4 -8.38 4 -6 4 C-5.67 3.01 -5.34 2.02 -5 1 C-3 0 -3 0 0 0 Z " fill="#3D3D3D" transform="translate(739,324)"/>
<path d="M0 0 C0.2236337 1.41433206 0.42826476 2.83167618 0.625 4.25 C0.74101563 5.03890625 0.85703125 5.8278125 0.9765625 6.640625 C1.00319395 9.32152459 0.36592084 10.72694089 -1 13 C-1.66 12.01 -2.32 11.02 -3 10 C-3.66 10.66 -4.32 11.32 -5 12 C-5.99 11.67 -6.98 11.34 -8 11 C-7.505 10.608125 -7.01 10.21625 -6.5 9.8125 C-4.79756475 8.07090073 -4.79756475 8.07090073 -4.625 5.5625 C-5.06043968 2.58699552 -6.02461472 1.22230844 -8 -1 C-4.37673261 -2.2077558 -3.35853631 -1.54311128 0 0 Z " fill="#555555" transform="translate(832,316)"/>
<path d="M0 0 C3.96 0.33 7.92 0.66 12 1 C12 2.65 12 4.3 12 6 C7.71 6 3.42 6 -1 6 C-1.33 5.34 -1.66 4.68 -2 4 C-1.34 2.68 -0.68 1.36 0 0 Z " fill="#474748" transform="translate(758,325)"/>
<path d="M0 0 C-0.375 2.4375 -0.375 2.4375 -1 5 C-3.76452033 6.38226016 -6.0461363 6.09525387 -9.125 6.0625 C-10.22070312 6.05347656 -11.31640625 6.04445313 -12.4453125 6.03515625 C-13.70988281 6.01775391 -13.70988281 6.01775391 -15 6 C-15 5.34 -15 4.68 -15 4 C-14.01 3.67 -13.02 3.34 -12 3 C-12.66 2.34 -13.32 1.68 -14 1 C-9.27616037 0.34843591 -4.78025483 -0.11950637 0 0 Z " fill="#484849" transform="translate(677,341)"/>
<path d="M0 0 C4.29 0.33 8.58 0.66 13 1 C13.33 2.32 13.66 3.64 14 5 C12.21005262 6.78994738 9.48790444 6.33849863 7.0625 6.5 C2.87832585 6.67735084 2.87832585 6.67735084 -1 8 C-1.125 2.25 -1.125 2.25 0 0 Z " fill="#464546" transform="translate(787,325)"/>
<path d="M0 0 C0.89332031 0.22042969 1.78664063 0.44085938 2.70703125 0.66796875 C4.05861328 0.98701172 4.05861328 0.98701172 5.4375 1.3125 C6.12457031 1.49167969 6.81164062 1.67085938 7.51953125 1.85546875 C7.84953125 2.84546875 8.17953125 3.83546875 8.51953125 4.85546875 C7.52953125 6.34046875 7.52953125 6.34046875 6.51953125 7.85546875 C0.3671875 7.26953125 0.3671875 7.26953125 -1.48046875 6.85546875 C-1.81046875 6.19546875 -2.14046875 5.53546875 -2.48046875 4.85546875 C-0.17046875 4.85546875 2.13953125 4.85546875 4.51953125 4.85546875 C2.93680524 3.27274274 1.13919122 3.50811128 -1.04296875 3.29296875 C-1.86925781 3.20917969 -2.69554687 3.12539063 -3.546875 3.0390625 C-4.18496094 2.97847656 -4.82304688 2.91789062 -5.48046875 2.85546875 C-3.67264042 0.4710573 -3.06905193 -0.17882665 0 0 Z " fill="#3A3A3A" transform="translate(669.48046875,311.14453125)"/>
<path d="M0 0 C1.84765625 0.21875 1.84765625 0.21875 4 1 C5.4423148 3.23881701 6.45837378 5.54596594 7.55859375 7.96875 C8.86911777 10.25986994 8.86911777 10.25986994 11.66015625 10.78125 C12.43230469 10.8534375 13.20445312 10.925625 14 11 C14 11.66 14 12.32 14 13 C11.25 13.375 11.25 13.375 8 13 C5.36091208 9.87476431 4 8.13534147 4 4 C3.34 4 2.68 4 2 4 C1.34 2.68 0.68 1.36 0 0 Z " fill="#3A3A3A" transform="translate(821,334)"/>
<path d="M0 0 C0.33 0 0.66 0 1 0 C1.03738281 0.70125 1.07476563 1.4025 1.11328125 2.125 C1.54272869 8.32251602 2.52645761 13.30009796 5 19 C4.01 19 3.02 19 2 19 C-0.99005592 13.26905949 -1.61258141 8.44388517 -1 2 C-0.67 1.34 -0.34 0.68 0 0 Z " fill="#3C3C3C" transform="translate(652,323)"/>
<path d="M0 0 C2 3 2 3 3 5 C5.31 5 7.62 5 10 5 C10 5.99 10 6.98 10 8 C6.94928825 8.287803 4.03939738 8.4472872 1 8 C-1.10361696 5.5776532 -2 4.21754366 -2 1 C-1.34 0.67 -0.68 0.34 0 0 Z " fill="#0C2865" transform="translate(491,339)"/>
<path d="M0 0 C0.66 0.66 1.32 1.32 2 2 C-2.52883564 5.69457644 -4.64662227 7.14899094 -10.5 7.1875 C-11.4796875 7.20167969 -12.459375 7.21585937 -13.46875 7.23046875 C-16 7 -16 7 -18 5 C-17.01 4.67 -16.02 4.34 -15 4 C-15 4.66 -15 5.32 -15 6 C-12.03 6 -9.06 6 -6 6 C-6 5.34 -6 4.68 -6 4 C-4.35 3.67 -2.7 3.34 -1 3 C-0.67 2.01 -0.34 1.02 0 0 Z " fill="#112C65" transform="translate(593,340)"/>
<path d="M0 0 C0.99 0 1.98 0 3 0 C4.42944945 2.35438733 5.08661261 3.48032433 4.625 6.25 C4.41875 6.8275 4.2125 7.405 4 8 C2.68 7.67 1.36 7.34 0 7 C-0.38133299 5.0085944 -0.71325582 3.00720923 -1 1 C-0.67 0.67 -0.34 0.34 0 0 Z " fill="#545456" transform="translate(707,339)"/>
<path d="M0 0 C3.33557632 2.9905167 5.15083921 5.93184627 7 10 C5.35 10 3.7 10 2 10 C-0.09350689 6.5980513 -0.17942163 3.94727588 0 0 Z " fill="#5A5A5A" transform="translate(828,335)"/>
<path d="M0 0 C0.9583374 0.04713135 1.9166748 0.0942627 2.90405273 0.14282227 C3.93852539 0.19116211 4.97299805 0.23950195 6.03881836 0.28930664 C7.12743164 0.34538086 8.21604492 0.40145508 9.33764648 0.45922852 C10.43012695 0.51143555 11.52260742 0.56364258 12.64819336 0.61743164 C15.35743724 0.74756999 18.06635442 0.88254906 20.77514648 1.02172852 C20.77514648 1.35172852 20.77514648 1.68172852 20.77514648 2.02172852 C13.51514648 2.02172852 6.25514648 2.02172852 -1.22485352 2.02172852 C-1.55485352 3.67172852 -1.88485352 5.32172852 -2.22485352 7.02172852 C-2.55485352 7.02172852 -2.88485352 7.02172852 -3.22485352 7.02172852 C-3.26739708 5.02218106 -3.26566134 3.02131215 -3.22485352 1.02172852 C-2.22485352 0.02172852 -2.22485352 0.02172852 0 0 Z " fill="#051255" transform="translate(537.224853515625,311.978271484375)"/>
<path d="M0 0 C0.66 0 1.32 0 2 0 C1.67 1.65 1.34 3.3 1 5 C1.66 5 2.32 5 3 5 C1.63016497 8.16115776 1.0109362 8.9927092 -2 11 C-3.13643966 7.59068103 -2.86747764 6.99664544 -1.5625 3.8125 C-1.13130859 2.73935547 -1.13130859 2.73935547 -0.69140625 1.64453125 C-0.46324219 1.10183594 -0.23507812 0.55914062 0 0 Z " fill="#3B3C3B" transform="translate(689,324)"/>
<path d="M0 0 C0.33 0 0.66 0 1 0 C1 2.64 1 5.28 1 8 C-1.97 8 -4.94 8 -8 8 C-8.33 7.34 -8.66 6.68 -9 6 C-6.36 6 -3.72 6 -1 6 C-1.020625 5.195625 -1.04125 4.39125 -1.0625 3.5625 C-1 1 -1 1 0 0 Z " fill="#071A56" transform="translate(560,312)"/>
<path d="M0 0 C0.99 0.33 1.98 0.66 3 1 C2.01 3.31 1.02 5.62 0 8 C-1.65 8 -3.3 8 -5 8 C-4.34 7.34 -3.68 6.68 -3 6 C-3 5.01 -3 4.02 -3 3 C-2.01 3 -1.02 3 0 3 C0 2.01 0 1.02 0 0 Z " fill="#4C4C4F" transform="translate(687,339)"/>
<path d="M0 0 C4.29 0 8.58 0 13 0 C13.33 0.66 13.66 1.32 14 2 C7.565 2.495 7.565 2.495 1 3 C0.67 2.01 0.34 1.02 0 0 Z " fill="#323233" transform="translate(757,316)"/>
<path d="M0 0 C3 1 3 1 4.1875 2.875 C5 5 5 5 5 8 C5.99 8.33 6.98 8.66 8 9 C7.34 10.32 6.68 11.64 6 13 C4.99491199 11.21118264 3.99607264 9.41885304 3 7.625 C2.1646875 6.12839844 2.1646875 6.12839844 1.3125 4.6015625 C0 2 0 2 0 0 Z " fill="#021944" transform="translate(335,300)"/>
<path d="M0 0 C2.6855594 2.6855594 3.06049974 5.37621328 4 9 C3 10 3 10 0.71484375 10.09765625 C-0.65994141 10.08025391 -0.65994141 10.08025391 -2.0625 10.0625 C-2.98160156 10.05347656 -3.90070312 10.04445313 -4.84765625 10.03515625 C-5.55792969 10.02355469 -6.26820313 10.01195312 -7 10 C-7 9.67 -7 9.34 -7 9 C-4.36 8.67 -1.72 8.34 1 8 C0.649375 7.05125 0.29875 6.1025 -0.0625 5.125 C-1 2 -1 2 0 0 Z " fill="#3D3D3D" transform="translate(699,323)"/>
<path d="M0 0 C1.0625 1.875 1.0625 1.875 2 4 C1.67 4.66 1.34 5.32 1 6 C3.31 6.33 5.62 6.66 8 7 C8 7.33 8 7.66 8 8 C5.03 8 2.06 8 -1 8 C-1 7.01 -1 6.02 -1 5 C-1.66 5 -2.32 5 -3 5 C-1.125 1.125 -1.125 1.125 0 0 Z " fill="#5B5B5C" transform="translate(693,324)"/>
<path d="M0 0 C2 3 2 3 1.3125 6.5 C0.15493615 9.58683693 -0.4589912 11.0364932 -3 13 C-3 12.34 -3 11.68 -3 11 C-3.66 10.67 -4.32 10.34 -5 10 C-4.34 9.34 -3.68 8.68 -3 8 C-2.01 8 -1.02 8 0 8 C0 5.36 0 2.72 0 0 Z " fill="#636364" transform="translate(740,318)"/>
<path d="M0 0 C3.69790046 1.23263349 3.9354846 2.20052451 5.6875 5.5625 C6.12449219 6.38878906 6.56148438 7.21507812 7.01171875 8.06640625 C7.33785156 8.70449219 7.66398437 9.34257812 8 10 C7.01 10 6.02 10 5 10 C3.35 6.7 1.7 3.4 0 0 Z " fill="#021352" transform="translate(365,353)"/>
<path d="M0 0 C0.33 0 0.66 0 1 0 C1 5.94 1 11.88 1 18 C0.01 18 -0.98 18 -2 18 C-1.505 16.515 -1.505 16.515 -1 15 C-0.77281504 12.43365139 -0.58391816 9.88321893 -0.4375 7.3125 C-0.39431641 6.61060547 -0.35113281 5.90871094 -0.30664062 5.18554688 C-0.2008264 3.45724794 -0.09993419 1.7286489 0 0 Z " fill="#000D48" transform="translate(569,320)"/>
<path d="M0 0 C1.45792884 -0.05399736 2.91642712 -0.09279177 4.375 -0.125 C5.18710937 -0.14820313 5.99921875 -0.17140625 6.8359375 -0.1953125 C9 0 9 0 11 2 C7.37 2.33 3.74 2.66 0 3 C0 2.01 0 1.02 0 0 Z " fill="#3C3D3D" transform="translate(724,316)"/>
<path d="M0 0 C0.66 0 1.32 0 2 0 C4.32590854 3.63423209 4.16265833 6.77088331 4 11 C3.34 10.67 2.68 10.34 2 10 C1.3671875 7.71484375 1.3671875 7.71484375 0.875 4.9375 C0.70742188 4.01839844 0.53984375 3.09929687 0.3671875 2.15234375 C0.24601562 1.44207031 0.12484375 0.73179687 0 0 Z " fill="#000B3A" transform="translate(373,366)"/>
<path d="M0 0 C8.57142857 -0.28571429 8.57142857 -0.28571429 12 2 C12 2.33 12 2.66 12 3 C7.53160785 3.21278058 4.17737474 2.59138085 0 1 C0 0.67 0 0.34 0 0 Z " fill="#021650" transform="translate(614,318)"/>
<path d="M0 0 C0.99 0 1.98 0 3 0 C3.66 1.32 4.32 2.64 5 4 C4.34 4 3.68 4 3 4 C3 4.66 3 5.32 3 6 C2.34 6 1.68 6 1 6 C0.34 4.35 -0.32 2.7 -1 1 C-0.67 0.67 -0.34 0.34 0 0 Z " fill="#4F4E4F" transform="translate(733,332)"/>
<path d="M0 0 C0 0.66 0 1.32 0 2 C-0.66 2 -1.32 2 -2 2 C-2 2.66 -2 3.32 -2 4 C-5.875 2.25 -5.875 2.25 -7 0 C-3.86650268 -1.04449911 -3.01031744 -0.93423645 0 0 Z " fill="#4F4F4F" transform="translate(831,315)"/>
<path d="M0 0 C0.99 0.33 1.98 0.66 3 1 C-0.75 4 -0.75 4 -3 4 C-3.66 5.32 -4.32 6.64 -5 8 C-4.66275164 4.88045262 -4.3790035 3.3790035 -2.125 1.125 C-1.42375 0.75375 -0.7225 0.3825 0 0 Z " fill="#403F40" transform="translate(659,314)"/>
<path d="M0 0 C0.99 0.33 1.98 0.66 3 1 C3.66 0.67 4.32 0.34 5 0 C4.67 2.64 4.34 5.28 4 8 C1.84622436 5.37801226 0.59927826 3.35595828 0 0 Z " fill="#565656" transform="translate(693,314)"/>
<path d="M0 0 C0.33 0.99 0.66 1.98 1 3 C0 4 0 4 -3.5625 4.0625 C-4.696875 4.041875 -5.83125 4.02125 -7 4 C-6.34 3.67 -5.68 3.34 -5 3 C-5 2.34 -5 1.68 -5 1 C-3.35 1.33 -1.7 1.66 0 2 C0 1.34 0 0.68 0 0 Z " fill="#031444" transform="translate(586,337)"/>
<path d="M0 0 C4.62 0 9.24 0 14 0 C14 0.99 14 1.98 14 3 C13.34 2.67 12.68 2.34 12 2 C9.9625237 1.77141886 7.91959697 1.58975722 5.875 1.4375 C4.23144531 1.31181641 4.23144531 1.31181641 2.5546875 1.18359375 C1.71164062 1.12300781 0.86859375 1.06242187 0 1 C0 0.67 0 0.34 0 0 Z " fill="#091C51" transform="translate(516,339)"/>
<path d="M0 0 C3.1875 0.3125 3.1875 0.3125 6 1 C6 1.66 6 2.32 6 3 C3.03 3 0.06 3 -3 3 C-2.01 2.01 -1.02 1.02 0 0 Z " fill="#404040" transform="translate(667,311)"/>
<path d="M0 0 C0.99 0.99 1.98 1.98 3 3 C1.8553125 3.2165625 1.8553125 3.2165625 0.6875 3.4375 C-2.08172908 3.9632594 -2.08172908 3.9632594 -5 5 C-5 4.34 -5 3.68 -5 3 C-2.5 1.375 -2.5 1.375 0 0 Z " fill="#575757" transform="translate(661,315)"/>
<path d="" fill="#000000" transform="translate(0,0)"/>
<path d="" fill="#000000" transform="translate(0,0)"/>
<path d="" fill="#000000" transform="translate(0,0)"/>
</svg>
